<?xml version="1.0" encoding="UTF-8"?>
<svg
  xmlns="http://www.w3.org/2000/svg"
  width="250" height="250">
  	<style>
  		path {
  			stroke-width: 5;
  		}
  		.in {
  			fill: #e06060;
  			stroke: #e06060;
  		}
  		.out {
  			fill: #60f060;
  			stroke: #60f060;
  		}
      #serveur path {
        stroke:#0a0a0a;
        stroke-width:4;
        stroke-linejoin: round;
      }
  	</style>
  	<defs>
  		<g id="proxy">
	  		<path class="in" d="M0,5 L45,5 40,0 40,10 45,5"/>
	  		<path class="out" d="M45,25 L0,25 5,20 5,30 0,25"/>
	  	</g>
      <g id="serveur">
        <path d="M25,100L25,225 110,225 110,100 Z M50,200H85" style="fill:#a09d9d;"/>
        <path d="M45,160H90 M45,150H90 M45,140H90 M45,130H90" style="stroke-width:2"/>
        <path d="M110,100L110,225 175,150 175,25 Z" style="fill:#908e8e;"/>
        <path d="M25,100L110,100 175,25 90,25 Z" style="fill:#b9b9b9;"/>
      </g>
  	</defs>
	<use href="#serveur"/>
	<use href="#proxy" x="67" y="55"/>
</svg>